<mxfile host="Electron" modified="2023-06-04T08:17:36.027Z" agent="Mozilla/5.0 (Windows NT 10.0; Win64; x64) AppleWebKit/537.36 (KHTML, like Gecko) draw.io/21.2.8 Chrome/112.0.5615.165 Electron/24.2.0 Safari/537.36" etag="WmS0Mkc0KJMze5Q9uLA4" version="21.2.8" type="device">
  <diagram name="Halaman-1" id="ZR-yL-Wuxzw2gbj-e1pf">
    <mxGraphModel dx="864" dy="516" grid="1" gridSize="10" guides="1" tooltips="1" connect="1" arrows="1" fold="1" page="1" pageScale="1" pageWidth="850" pageHeight="1100" math="0" shadow="0">
      <root>
        <mxCell id="0" />
        <mxCell id="1" parent="0" />
        <mxCell id="UkKj1CkfEczIpLiyYki0-14" value="" style="edgeStyle=orthogonalEdgeStyle;rounded=0;orthogonalLoop=1;jettySize=auto;html=1;" edge="1" parent="1" source="UkKj1CkfEczIpLiyYki0-2" target="UkKj1CkfEczIpLiyYki0-5">
          <mxGeometry relative="1" as="geometry" />
        </mxCell>
        <mxCell id="UkKj1CkfEczIpLiyYki0-2" value="START" style="rounded=1;whiteSpace=wrap;html=1;" vertex="1" parent="1">
          <mxGeometry x="360" y="120" width="120" height="30" as="geometry" />
        </mxCell>
        <mxCell id="UkKj1CkfEczIpLiyYki0-3" value="Pengambilan_Produk &amp;gt;=1000000" style="shape=parallelogram;perimeter=parallelogramPerimeter;whiteSpace=wrap;html=1;fixedSize=1;" vertex="1" parent="1">
          <mxGeometry x="340" y="180" width="160" height="40" as="geometry" />
        </mxCell>
        <mxCell id="UkKj1CkfEczIpLiyYki0-15" value="" style="edgeStyle=orthogonalEdgeStyle;rounded=0;orthogonalLoop=1;jettySize=auto;html=1;" edge="1" parent="1" source="UkKj1CkfEczIpLiyYki0-5" target="UkKj1CkfEczIpLiyYki0-9">
          <mxGeometry relative="1" as="geometry" />
        </mxCell>
        <mxCell id="UkKj1CkfEczIpLiyYki0-5" value="Print &quot;Anda tidak memeniuhi syarat minimal pengambilan produk&quot;" style="rounded=0;whiteSpace=wrap;html=1;" vertex="1" parent="1">
          <mxGeometry x="320" y="250" width="200" height="40" as="geometry" />
        </mxCell>
        <mxCell id="UkKj1CkfEczIpLiyYki0-6" style="edgeStyle=orthogonalEdgeStyle;rounded=0;orthogonalLoop=1;jettySize=auto;html=1;exitX=0.5;exitY=1;exitDx=0;exitDy=0;" edge="1" parent="1" source="UkKj1CkfEczIpLiyYki0-2" target="UkKj1CkfEczIpLiyYki0-2">
          <mxGeometry relative="1" as="geometry" />
        </mxCell>
        <mxCell id="UkKj1CkfEczIpLiyYki0-8" value="Pengambilan_produk &amp;gt;=10000000" style="shape=parallelogram;perimeter=parallelogramPerimeter;whiteSpace=wrap;html=1;fixedSize=1;" vertex="1" parent="1">
          <mxGeometry x="300" y="321" width="240" height="30" as="geometry" />
        </mxCell>
        <mxCell id="UkKj1CkfEczIpLiyYki0-16" value="" style="edgeStyle=orthogonalEdgeStyle;rounded=0;orthogonalLoop=1;jettySize=auto;html=1;" edge="1" parent="1" source="UkKj1CkfEczIpLiyYki0-9" target="UkKj1CkfEczIpLiyYki0-12">
          <mxGeometry relative="1" as="geometry" />
        </mxCell>
        <mxCell id="UkKj1CkfEczIpLiyYki0-9" value="Jumlah_kendaraan &amp;gt; 8 ?" style="rounded=0;whiteSpace=wrap;html=1;" vertex="1" parent="1">
          <mxGeometry x="320" y="379" width="200" height="30" as="geometry" />
        </mxCell>
        <mxCell id="UkKj1CkfEczIpLiyYki0-11" value="Print &quot;Anda memenuhi syarat menjadi Distributor di daerah ini.&quot;" style="shape=parallelogram;perimeter=parallelogramPerimeter;whiteSpace=wrap;html=1;fixedSize=1;" vertex="1" parent="1">
          <mxGeometry x="300" y="439" width="240" height="37" as="geometry" />
        </mxCell>
        <mxCell id="UkKj1CkfEczIpLiyYki0-12" value="END" style="rounded=1;whiteSpace=wrap;html=1;" vertex="1" parent="1">
          <mxGeometry x="370" y="500" width="110" height="30" as="geometry" />
        </mxCell>
      </root>
    </mxGraphModel>
  </diagram>
</mxfile>
